<mxfile host="app.diagrams.net" agent="Mozilla/5.0 (Macintosh; Intel Mac OS X 10_15_7) AppleWebKit/605.1.15 (KHTML, like Gecko) Version/18.3.1 Safari/605.1.15" version="26.1.1">
  <diagram name="Page-1" id="qHQKeOQHRoxzviN24Zjn">
    <mxGraphModel dx="2040" dy="2514" grid="1" gridSize="10" guides="1" tooltips="1" connect="1" arrows="1" fold="1" page="1" pageScale="1" pageWidth="850" pageHeight="1100" math="0" shadow="0">
      <root>
        <mxCell id="0" />
        <mxCell id="1" parent="0" />
        <mxCell id="yGHgKscru1os9skhGZFk-1" value="" style="group" parent="1" vertex="1" connectable="0">
          <mxGeometry y="210" width="1820" height="930" as="geometry" />
        </mxCell>
        <mxCell id="yGHgKscru1os9skhGZFk-2" value="" style="rounded=1;whiteSpace=wrap;html=1;" parent="yGHgKscru1os9skhGZFk-1" vertex="1">
          <mxGeometry width="1820" height="800" as="geometry" />
        </mxCell>
        <mxCell id="yGHgKscru1os9skhGZFk-3" value="&lt;b&gt;&lt;font style=&quot;font-size: 25px;&quot;&gt;Tácticas ATT&amp;amp;CK Prioritarias&lt;/font&gt;&lt;/b&gt;" style="rounded=1;whiteSpace=wrap;html=1;fillColor=#CCCCCC;strokeColor=#666666;fontColor=#333333;" parent="yGHgKscru1os9skhGZFk-1" vertex="1">
          <mxGeometry x="490" y="60" width="400" height="60" as="geometry" />
        </mxCell>
        <mxCell id="yGHgKscru1os9skhGZFk-4" value="&lt;font style=&quot;font-size: 25px;&quot;&gt;Nivel de Riesgo&lt;/font&gt;" style="rounded=1;whiteSpace=wrap;html=1;fontStyle=1;fillColor=#CCCCCC;" parent="yGHgKscru1os9skhGZFk-1" vertex="1">
          <mxGeometry x="60" y="60" width="400" height="60" as="geometry" />
        </mxCell>
        <mxCell id="yGHgKscru1os9skhGZFk-5" value="&lt;span style=&quot;font-size: 25px;&quot;&gt;&lt;b&gt;Ejemplos Abilities Caldera&lt;/b&gt;&lt;/span&gt;" style="rounded=1;whiteSpace=wrap;html=1;fillColor=#CCCCCC;" parent="yGHgKscru1os9skhGZFk-1" vertex="1">
          <mxGeometry x="920" y="60" width="400" height="60" as="geometry" />
        </mxCell>
        <mxCell id="yGHgKscru1os9skhGZFk-6" value="&lt;span style=&quot;font-weight: 700;&quot;&gt;&lt;font style=&quot;font-size: 25px;&quot;&gt;Frecuencia de Auditoria&lt;/font&gt;&lt;/span&gt;" style="rounded=1;whiteSpace=wrap;html=1;fillColor=#CCCCCC;" parent="yGHgKscru1os9skhGZFk-1" vertex="1">
          <mxGeometry x="1350" y="60" width="400" height="60" as="geometry" />
        </mxCell>
        <mxCell id="yGHgKscru1os9skhGZFk-7" value="&lt;font style=&quot;font-size: 24px;&quot;&gt;Acceso Inicial&lt;/font&gt;&lt;div&gt;&lt;font style=&quot;font-size: 24px;&quot;&gt;Persistencia&lt;/font&gt;&lt;/div&gt;&lt;div&gt;&lt;font style=&quot;font-size: 24px;&quot;&gt;Exfiltración&lt;/font&gt;&lt;/div&gt;" style="rounded=1;whiteSpace=wrap;html=1;fillColor=light-dark(#FF3333,#392F3F);" parent="yGHgKscru1os9skhGZFk-1" vertex="1">
          <mxGeometry x="502.5" y="140" width="375" height="130" as="geometry" />
        </mxCell>
        <mxCell id="yGHgKscru1os9skhGZFk-8" value="&lt;font style=&quot;font-size: 24px;&quot;&gt;Movimiento Lateral&lt;/font&gt;&lt;div&gt;&lt;font style=&quot;font-size: 24px;&quot;&gt;Escalada de Privilegios&lt;/font&gt;&lt;/div&gt;" style="rounded=1;whiteSpace=wrap;html=1;fillColor=light-dark(#B5739D,#512D2B);" parent="yGHgKscru1os9skhGZFk-1" vertex="1">
          <mxGeometry x="503.75" y="290" width="365" height="130" as="geometry" />
        </mxCell>
        <mxCell id="yGHgKscru1os9skhGZFk-9" value="&lt;font style=&quot;font-size: 24px;&quot;&gt;Descubrimiento&lt;/font&gt;&lt;div&gt;&lt;font style=&quot;font-size: 24px;&quot;&gt;Evasión&lt;/font&gt;&lt;/div&gt;" style="rounded=1;whiteSpace=wrap;html=1;fillColor=light-dark(#FFE599,#392F3F);" parent="yGHgKscru1os9skhGZFk-1" vertex="1">
          <mxGeometry x="503.75" y="440" width="365" height="130" as="geometry" />
        </mxCell>
        <mxCell id="yGHgKscru1os9skhGZFk-11" value="&lt;font style=&quot;font-size: 24px;&quot;&gt;Reconocimiento&lt;/font&gt;&lt;div&gt;&lt;font style=&quot;font-size: 24px;&quot;&gt;Colección&lt;/font&gt;&lt;/div&gt;" style="rounded=1;whiteSpace=wrap;html=1;fillColor=light-dark(#66FF66,#512D2B);" parent="yGHgKscru1os9skhGZFk-1" vertex="1">
          <mxGeometry x="506.25" y="590" width="365" height="120" as="geometry" />
        </mxCell>
        <mxCell id="yGHgKscru1os9skhGZFk-12" value="" style="group;" parent="yGHgKscru1os9skhGZFk-1" vertex="1" connectable="0">
          <mxGeometry x="75" y="140" width="375" height="130" as="geometry" />
        </mxCell>
        <mxCell id="yGHgKscru1os9skhGZFk-13" value="&lt;font size=&quot;5&quot;&gt;Muy alto&lt;/font&gt;" style="rounded=1;whiteSpace=wrap;html=1;fillColor=light-dark(#FF3333,#392F3F);strokeColor=#9673a6;" parent="yGHgKscru1os9skhGZFk-12" vertex="1">
          <mxGeometry width="375.00000000000006" height="130" as="geometry" />
        </mxCell>
        <mxCell id="yGHgKscru1os9skhGZFk-14" value="" style="group" parent="yGHgKscru1os9skhGZFk-1" vertex="1" connectable="0">
          <mxGeometry x="76.25" y="440" width="375" height="130" as="geometry" />
        </mxCell>
        <mxCell id="yGHgKscru1os9skhGZFk-15" value="&lt;font style=&quot;font-size: 24px;&quot;&gt;Moderado&lt;/font&gt;" style="rounded=1;whiteSpace=wrap;html=1;fillColor=light-dark(#FFE599,#392F3F);strokeColor=#000000;" parent="yGHgKscru1os9skhGZFk-14" vertex="1">
          <mxGeometry width="375" height="130" as="geometry" />
        </mxCell>
        <mxCell id="yGHgKscru1os9skhGZFk-16" value="" style="group" parent="yGHgKscru1os9skhGZFk-1" vertex="1" connectable="0">
          <mxGeometry x="71.25" y="290" width="377.5" height="130" as="geometry" />
        </mxCell>
        <mxCell id="yGHgKscru1os9skhGZFk-17" value="&lt;font style=&quot;font-size: 24px;&quot;&gt;Alto&lt;/font&gt;" style="rounded=1;whiteSpace=wrap;html=1;fillColor=light-dark(#B5739D,#512D2B);strokeColor=#000000;" parent="yGHgKscru1os9skhGZFk-16" vertex="1">
          <mxGeometry width="377.5" height="130" as="geometry" />
        </mxCell>
        <mxCell id="yGHgKscru1os9skhGZFk-20" value="&lt;div&gt;&lt;font size=&quot;5&quot;&gt;Phishing&lt;/font&gt;&lt;/div&gt;&lt;div&gt;&lt;font size=&quot;5&quot;&gt;Credential Dumping&lt;/font&gt;&lt;/div&gt;&lt;div&gt;&lt;font size=&quot;5&quot;&gt;DNS&amp;nbsp;exfil&lt;/font&gt;&lt;/div&gt;" style="rounded=1;whiteSpace=wrap;html=1;fillColor=light-dark(#FF3333,#392F3F);" parent="yGHgKscru1os9skhGZFk-1" vertex="1">
          <mxGeometry x="935" y="140" width="375" height="130" as="geometry" />
        </mxCell>
        <mxCell id="yGHgKscru1os9skhGZFk-21" value="&lt;font size=&quot;5&quot;&gt;psexec&lt;/font&gt;&lt;div&gt;&lt;font size=&quot;5&quot;&gt;pass the hash&lt;/font&gt;&lt;/div&gt;" style="rounded=1;whiteSpace=wrap;html=1;fillColor=light-dark(#B5739D,#512D2B);" parent="yGHgKscru1os9skhGZFk-1" vertex="1">
          <mxGeometry x="935" y="290" width="375" height="130" as="geometry" />
        </mxCell>
        <mxCell id="yGHgKscru1os9skhGZFk-22" value="&lt;font size=&quot;5&quot;&gt;Port_scan&lt;/font&gt;" style="rounded=1;whiteSpace=wrap;html=1;fillColor=light-dark(#FFE599,#392F3F);" parent="yGHgKscru1os9skhGZFk-1" vertex="1">
          <mxGeometry x="931.25" y="440" width="375" height="130" as="geometry" />
        </mxCell>
        <mxCell id="yGHgKscru1os9skhGZFk-24" value="&lt;font size=&quot;5&quot;&gt;Network_mapping&lt;/font&gt;&lt;div&gt;&lt;font size=&quot;5&quot;&gt;File_search&lt;/font&gt;&lt;/div&gt;" style="rounded=1;whiteSpace=wrap;html=1;fillColor=light-dark(#66FF66,#512D2B);" parent="yGHgKscru1os9skhGZFk-1" vertex="1">
          <mxGeometry x="935" y="590" width="377.5" height="130" as="geometry" />
        </mxCell>
        <mxCell id="yGHgKscru1os9skhGZFk-25" value="" style="group" parent="yGHgKscru1os9skhGZFk-1" vertex="1" connectable="0">
          <mxGeometry x="75" y="590" width="377.5" height="130" as="geometry" />
        </mxCell>
        <mxCell id="yGHgKscru1os9skhGZFk-26" value="&lt;font style=&quot;font-size: 24px;&quot;&gt;Bajo&lt;/font&gt;" style="rounded=1;whiteSpace=wrap;html=1;fillColor=light-dark(#66FF66,#512D2B);strokeColor=#000000;" parent="yGHgKscru1os9skhGZFk-25" vertex="1">
          <mxGeometry width="377.5" height="130" as="geometry" />
        </mxCell>
        <mxCell id="yGHgKscru1os9skhGZFk-27" value="&lt;font size=&quot;5&quot;&gt;Diaria&lt;/font&gt;" style="rounded=1;whiteSpace=wrap;html=1;fillColor=light-dark(#FF3333,#392F3F);" parent="yGHgKscru1os9skhGZFk-1" vertex="1">
          <mxGeometry x="1362.5" y="140" width="375" height="130" as="geometry" />
        </mxCell>
        <mxCell id="yGHgKscru1os9skhGZFk-28" value="&lt;font size=&quot;5&quot;&gt;Semanal&lt;/font&gt;" style="rounded=1;whiteSpace=wrap;html=1;fillColor=light-dark(#B5739D,#512D2B);" parent="yGHgKscru1os9skhGZFk-1" vertex="1">
          <mxGeometry x="1362.5" y="290" width="375" height="130" as="geometry" />
        </mxCell>
        <mxCell id="yGHgKscru1os9skhGZFk-29" value="&lt;div&gt;&lt;font size=&quot;5&quot;&gt;Mensual&lt;/font&gt;&lt;/div&gt;" style="rounded=1;whiteSpace=wrap;html=1;fillColor=light-dark(#FFE599,#392F3F);" parent="yGHgKscru1os9skhGZFk-1" vertex="1">
          <mxGeometry x="1362.5" y="440" width="375" height="130" as="geometry" />
        </mxCell>
        <mxCell id="yGHgKscru1os9skhGZFk-31" value="&lt;font size=&quot;5&quot;&gt;Trimestral&lt;/font&gt;" style="rounded=1;whiteSpace=wrap;html=1;fillColor=light-dark(#66FF66,#512D2B);" parent="yGHgKscru1os9skhGZFk-1" vertex="1">
          <mxGeometry x="1366.25" y="590" width="375" height="130" as="geometry" />
        </mxCell>
        <mxCell id="FZZGLzmGfjNay8KPiV7Y-1" value="&lt;font style=&quot;font-size: 33px;&quot;&gt;Categorización de Riesgos&lt;/font&gt;" style="rounded=1;whiteSpace=wrap;html=1;fillColor=#f5f5f5;fontColor=#333333;strokeColor=#666666;" vertex="1" parent="1">
          <mxGeometry x="720" y="100" width="350" height="90" as="geometry" />
        </mxCell>
      </root>
    </mxGraphModel>
  </diagram>
</mxfile>
